<?xml version="1.0" encoding="UTF-8" standalone="no"?>
<svg
   xmlns:dc="http://purl.org/dc/elements/1.1/"
   xmlns:cc="http://creativecommons.org/ns#"
   xmlns:rdf="http://www.w3.org/1999/02/22-rdf-syntax-ns#"
   xmlns:svg="http://www.w3.org/2000/svg"
   xmlns="http://www.w3.org/2000/svg"
   xmlns:sodipodi="http://sodipodi.sourceforge.net/DTD/sodipodi-0.dtd"
   xmlns:inkscape="http://www.inkscape.org/namespaces/inkscape"
   width="179.72789mm"
   height="20.35mm"
   viewBox="0 0 179.72789 20.350001"
   version="1.1"
   id="svg3733"
   sodipodi:docname="isomorph-letterhead.svg"
   inkscape:version="0.92.4 (5da689c313, 2019-01-14)">
  <metadata
     id="metadata3739">
    <rdf:RDF>
      <cc:Work
         rdf:about="">
        <dc:format>image/svg+xml</dc:format>
        <dc:type
           rdf:resource="http://purl.org/dc/dcmitype/StillImage" />
        <dc:title />
      </cc:Work>
    </rdf:RDF>
  </metadata>
  <defs
     id="defs3737" />
  <sodipodi:namedview
     pagecolor="#ffffff"
     bordercolor="#666666"
     borderopacity="1"
     objecttolerance="10"
     gridtolerance="10"
     guidetolerance="10"
     inkscape:pageopacity="0"
     inkscape:pageshadow="2"
     inkscape:window-width="3200"
     inkscape:window-height="1675"
     id="namedview3735"
     showgrid="false"
     inkscape:zoom="2.259204"
     inkscape:cx="173.65237"
     inkscape:cy="-106.82946"
     inkscape:window-x="-13"
     inkscape:window-y="-13"
     inkscape:window-maximized="1"
     inkscape:current-layer="svg3733" />
  <g
     id="Sketch"
     transform="matrix(1,0,0,-1,52.638362,31.292)">
    <title
       id="title3730">b'Sketch'</title>
  </g>
  <flowRoot
     style="font-style:normal;font-weight:normal;font-size:40px;line-height:1.25;font-family:sans-serif;letter-spacing:0px;word-spacing:0px;fill:#000000;fill-opacity:1;stroke:none"
     id="flowRoot3784"
     xml:space="preserve"
     transform="matrix(-0.99999999,0,0,0.99999999,52.638362,31.292)"><flowRegion
       id="flowRegion3786"><rect
         y="-73.823601"
         x="-82.785683"
         height="64.319313"
         width="277.62155"
         id="rect3788" /></flowRegion><flowPara
       id="flowPara3790" /></flowRoot>  <g
     id="g3839">
    <g
       transform="matrix(-0.99999999,0,0,0.99999999,91.980607,10.175)"
       id="g3782">
      <path
         d="M 8,0 A 8,8 0 0 1 0,8 8,8 0 0 1 -8,0 8,8 0 0 1 0,-8 8,8 0 0 1 8,0 Z M -8,10 H 8 L 11.639702,0 8,-10 H -8 L -11.639702,0 -8,10 m -10e-8,-10 A 8.0000001,8.0000001 0 0 1 0,-8.0000001 8.0000001,8.0000001 0 0 1 8.0000001,0 8.0000001,8.0000001 0 0 1 0,8.0000001 8.0000001,8.0000001 0 0 1 -8.0000001,0 Z M 8.0000001,-10 H -8.0000001 L -11.639702,0 -8.0000001,10 H 8.0000001 L 11.639702,0 8.0000001,-10"
         style="fill:none;stroke:#000000;stroke-width:0.34999999;stroke-miterlimit:4;stroke-dasharray:none"
         id="circle3728-1"
         inkscape:connector-curvature="0" />
    </g>
    <g
       aria-label="isomorph"
       style="font-style:normal;font-weight:normal;font-size:16.66257858px;line-height:1.25;font-family:sans-serif;letter-spacing:0px;word-spacing:0px;fill:#000000;fill-opacity:1;stroke:none;stroke-width:0.41656446"
       id="text40">
      <path
         d="M 0.24993869,14.340645 Q 0,14.340645 0,14.090706 0,13.840767 0.24993869,13.840767 H 1.4163192 q 0.2499387,0 0.2499387,-0.249938 V 6.7591716 q 0,-0.2499387 -0.2499387,-0.2499387 H 0.24993869 Q 0,6.5092329 0,6.2592942 0,6.0093555 0.24993869,6.0093555 H 1.9161965 q 0.2499387,0 0.2499387,0.2499387 v 7.3315348 q 0,0.249938 0.2499387,0.249938 h 1.1663805 q 0.2499387,0 0.2499387,0.249939 0,0.249939 -0.2499387,0.249939 z M 1.3496689,4.4930609 Q 1.1663805,4.29311 1.1663805,4.0098461 q 0,-0.2832638 0.1832884,-0.4665522 0.1999509,-0.1999509 0.4832148,-0.1999509 0.2832638,0 0.4665522,0.1999509 0.1999509,0.1832884 0.1999509,0.4665522 0,0.2832639 -0.1999509,0.4832148 -0.1832884,0.1832884 -0.4665522,0.1832884 -0.2832639,0 -0.4832148,-0.1832884 z"
         style="font-style:normal;font-variant:normal;font-weight:normal;font-stretch:normal;font-family:'Nixie One';-inkscape-font-specification:'Nixie One';stroke-width:0.41656446"
         id="path44" />
      <path
         d="m 8.967071,14.007393 q 1.449644,0 2.216123,-0.499877 0.783141,-0.51654 0.783141,-1.333006 0,-1.099731 -1.582945,-1.466307 Q 9.6502367,10.541577 8.6171569,10.391614 7.6007396,10.241651 7.1341874,10.10835 6.1344326,9.8417486 5.6345553,9.3751964 5.1346779,8.8919816 5.1346779,8.0255276 q 0,-0.8831167 0.8831167,-1.5329573 0.8997792,-0.6498405 2.4993868,-0.6498405 1.5996076,0 2.8493006,1.2496934 0.149964,0.1666257 0.199951,0.06665 0.06665,-0.099976 0.06665,-0.2332761 V 6.2592942 q 0,-0.2499387 0.249938,-0.2499387 0.249939,0 0.249939,0.2499387 v 2.6660126 q 0,0.2499387 -0.249939,0.2499387 -0.249938,0 -0.249938,-0.2499387 V 8.0921779 Q 10.916593,7.1424109 9.8001999,6.6092084 9.2170097,6.3426071 8.4838562,6.3426071 q -1.3663314,0 -2.1161475,0.4998774 -0.7331534,0.4832148 -0.7331534,1.2330308 0,0.749816 0.633178,1.1663805 0.6498405,0.3999019 1.9661843,0.5998528 0.5665276,0.099975 1.1497179,0.1832884 0.5831902,0.08331 1.0497425,0.183288 0.966429,0.216614 1.499632,0.666503 0.533203,0.44989 0.533203,1.382995 0,0.916441 -0.883117,1.582944 -0.866454,0.666504 -2.616025,0.666504 -1.3663314,0 -2.5327119,-0.799804 -0.3332516,-0.233276 -0.51654,-0.416565 -0.1832883,-0.199951 -0.2332761,-0.09998 -0.049988,0.09998 -0.049988,0.233276 v 0.666503 q 0,0.249939 -0.2499387,0.249939 -0.2499387,0 -0.2499387,-0.249939 v -2.666012 q 0,-0.249939 0.2499387,-0.249939 0.2499387,0 0.2499387,0.249939 v 0.833129 q 0.6831657,0.966429 1.8662088,1.482969 0.6165154,0.266601 1.4663069,0.266601 z"
         style="font-style:normal;font-variant:normal;font-weight:normal;font-stretch:normal;font-family:'Nixie One';-inkscape-font-specification:'Nixie One';stroke-width:0.41656446"
         id="path46" />
      <path
         d="M 15.360295,13.307565 Q 14.227239,12.107859 14.227239,10.175 q 0,-1.9328589 1.133056,-3.1325646 1.133055,-1.1997056 2.949276,-1.1997056 1.816221,0 2.949277,1.1997056 1.133055,1.1997057 1.133055,3.1325646 0,1.932859 -1.133055,3.132565 -1.133056,1.199706 -2.949277,1.199706 -1.816221,0 -2.949276,-1.199706 z m 2.949276,-6.9649579 q -1.61627,0 -2.599362,1.0497425 -0.983092,1.0497424 -0.983092,2.7993134 0,1.732908 0.966429,2.78265 0.983092,1.03308 2.616025,1.03308 1.632933,0 2.599362,-1.03308 0.983092,-1.049742 0.983092,-2.78265 0,-1.749571 -0.983092,-2.7993134 -0.983092,-1.0497425 -2.599362,-1.0497425 z"
         style="font-style:normal;font-variant:normal;font-weight:normal;font-stretch:normal;font-family:'Nixie One';-inkscape-font-specification:'Nixie One';stroke-width:0.41656446"
         id="path48" />
      <path
         d="m 23.957924,13.840767 h 1.16638 q 0.249939,0 0.249939,-0.249938 V 6.7591716 q 0,-0.2499387 -0.249939,-0.2499387 h -1.16638 q -0.249939,0 -0.249939,-0.2499387 0,-0.2499387 0.249939,-0.2499387 h 1.666257 q 0.249939,0 0.249939,0.2499387 v 0.9331044 q 0,0.4332271 0.266601,0.1666258 1.299682,-1.5162946 2.566038,-1.5162946 0.966429,0 1.68292,0.5498651 0.716491,0.549865 0.999755,1.5829449 0.333251,-0.5831902 0.799803,-1.066405 1.03308,-1.066405 2.232786,-1.066405 1.199706,0 1.982847,0.8831166 0.799804,0.8664541 0.799804,2.4493991 v 4.4155835 q 0,0.249938 0.249938,0.249938 h 1.166381 q 0.249938,0 0.249938,0.249939 0,0.249939 -0.249938,0.249939 h -3.16589 q -0.249939,0 -0.249939,-0.249939 0,-0.249939 0.249939,-0.249939 h 0.999755 q 0.249938,0 0.249938,-0.249938 V 9.1752455 q 0,-1.3663315 -0.666503,-2.0994849 -0.666503,-0.7331535 -1.68292,-0.7331535 -1.016418,0 -2.049497,1.1663805 -0.466553,0.5332025 -0.799804,1.1663805 0.03333,0.3665767 0.03333,0.4998774 v 4.4155835 q 0,0.249938 0.249939,0.249938 h 0.999754 q 0.249939,0 0.249939,0.249939 0,0.249939 -0.249939,0.249939 h -2.999264 q -0.249939,0 -0.249939,-0.249939 0,-0.249939 0.249939,-0.249939 h 0.999755 q 0.249939,0 0.249939,-0.249938 V 9.1752455 q 0,-1.3663315 -0.666504,-2.0994849 -0.666503,-0.7331535 -1.68292,-0.7331535 -0.999755,0 -1.999509,1.1330554 -0.433228,0.4832147 -0.816467,1.1163927 v 4.9987738 q 0,0.249938 0.249939,0.249938 h 0.999755 q 0.249938,0 0.249938,0.249939 0,0.249939 -0.249938,0.249939 h -3.16589 q -0.249939,0 -0.249939,-0.249939 0,-0.249939 0.249939,-0.249939 z"
         style="font-style:normal;font-variant:normal;font-weight:normal;font-stretch:normal;font-family:'Nixie One';-inkscape-font-specification:'Nixie One';stroke-width:0.41656446"
         id="path50" />
      <path
         d="M 40.972498,13.307565 Q 39.839443,12.107859 39.839443,10.175 q 0,-1.9328589 1.133055,-3.1325646 1.133056,-1.1997056 2.949277,-1.1997056 1.816221,0 2.949276,1.1997056 1.133055,1.1997057 1.133055,3.1325646 0,1.932859 -1.133055,3.132565 -1.133055,1.199706 -2.949276,1.199706 -1.816221,0 -2.949277,-1.199706 z m 2.949277,-6.9649579 q -1.61627,0 -2.599363,1.0497425 -0.983092,1.0497424 -0.983092,2.7993134 0,1.732908 0.96643,2.78265 0.983092,1.03308 2.616025,1.03308 1.632932,0 2.599362,-1.03308 0.983092,-1.049742 0.983092,-2.78265 0,-1.749571 -0.983092,-2.7993134 -0.983092,-1.0497425 -2.599362,-1.0497425 z"
         style="font-style:normal;font-variant:normal;font-weight:normal;font-stretch:normal;font-family:'Nixie One';-inkscape-font-specification:'Nixie One';stroke-width:0.41656446"
         id="path52" />
      <path
         d="m 55.65197,6.3426071 q -2.099485,0 -3.499141,1.6495953 -0.399902,0.4665522 -0.666503,0.9331044 v 4.6655222 q 0,0.249938 0.249938,0.249938 h 1.333007 q 0.249938,0 0.249938,0.249939 0,0.249939 -0.249938,0.249939 h -3.499142 q -0.249939,0 -0.249939,-0.249939 0,-0.249939 0.249939,-0.249939 h 1.166381 q 0.249938,0 0.249938,-0.249938 V 6.7591716 q 0,-0.2499387 -0.249938,-0.2499387 h -1.166381 q -0.249939,0 -0.249939,-0.2499387 0,-0.2499387 0.249939,-0.2499387 h 1.666258 q 0.249939,0 0.249939,0.2499387 v 1.3163437 q 0,0.4165645 0.349914,0.016663 0.616515,-0.6998283 1.599607,-1.2163682 0.999755,-0.5332025 2.216123,-0.5332025 h 0.816467 q 0.249938,0 0.249938,0.2499386 v 2.0828224 q 0,0.2499386 -0.249938,0.2499386 -0.249939,0 -0.249939,-0.2499386 v -1.582945 q 0,-0.2499387 -0.249939,-0.2499387 z"
         style="font-style:normal;font-variant:normal;font-weight:normal;font-stretch:normal;font-family:'Nixie One';-inkscape-font-specification:'Nixie One';stroke-width:0.41656446"
         id="path54" />
      <path
         d="m 62.163916,13.840767 q 1.916197,0 2.949277,-0.933104 1.049742,-0.933104 1.049742,-2.749325 0,-1.8162215 -0.883116,-2.8159762 -0.866455,-0.9997547 -2.249449,-0.9997547 -1.382994,0 -2.516049,1.1330554 -0.466552,0.4665522 -0.849791,1.1163927 v 4.9987738 q 0,0.249938 0.249938,0.249938 z m -2.249448,0.499878 q -0.249938,0 -0.249938,0.249939 v 2.332761 q 0,0.249938 0.249938,0.249938 h 1.333007 q 0.249938,0 0.249938,0.249939 0,0.249939 -0.249938,0.249939 h -3.499142 q -0.249939,0 -0.249939,-0.249939 0,-0.249939 0.249939,-0.249939 h 1.166381 q 0.249938,0 0.249938,-0.249938 V 6.7591716 q 0,-0.2499387 -0.249938,-0.2499387 h -1.166381 q -0.249939,0 -0.249939,-0.2499387 0,-0.2499387 0.249939,-0.2499387 h 1.666258 q 0.249939,0 0.249939,0.2499387 v 0.9331044 q 0,0.1666258 0.06665,0.2332761 0.06665,0.06665 0.199951,-0.06665 0.416564,-0.5332025 1.216368,-1.0164173 0.799804,-0.4998773 1.849546,-0.4998773 1.666258,0 2.666013,1.183043 0.999755,1.1663805 0.999755,3.1492272 0,1.982847 -1.199706,3.082577 -1.199706,1.083068 -3.299191,1.083068 z"
         style="font-style:normal;font-variant:normal;font-weight:normal;font-stretch:normal;font-family:'Nixie One';-inkscape-font-specification:'Nixie One';stroke-width:0.41656446"
         id="path56" />
      <path
         d="m 67.999725,13.840767 h 1.166381 q 0.249939,0 0.249939,-0.249938 V 3.4266559 q 0,-0.2499387 -0.249939,-0.2499387 h -1.166381 q -0.249938,0 -0.249938,-0.2499387 0,-0.2499387 0.249938,-0.2499387 h 1.666258 q 0.249939,0 0.249939,0.2499387 v 4.2656201 q 0,0.1666258 0.06665,0.2332761 0.06665,0.06665 0.199951,-0.06665 1.349669,-1.5162946 2.932614,-1.5162946 1.582945,0 2.432737,0.866454 0.866454,0.8497916 0.866454,2.4660617 v 4.4155835 q 0,0.249938 0.249938,0.249938 h 1.166381 q 0.249938,0 0.249938,0.249939 0,0.249939 -0.249938,0.249939 h -3.16589 q -0.249939,0 -0.249939,-0.249939 0,-0.249939 0.249939,-0.249939 h 0.999755 q 0.249938,0 0.249938,-0.249938 V 9.1752455 q 0,-1.4163192 -0.733153,-2.1161475 -0.733154,-0.7164909 -1.99951,-0.7164909 -1.266356,0 -2.399411,1.1330554 -0.483215,0.4998773 -0.866454,1.1163927 v 4.9987738 q 0,0.249938 0.249939,0.249938 h 0.999754 q 0.249939,0 0.249939,0.249939 0,0.249939 -0.249939,0.249939 h -3.16589 q -0.249938,0 -0.249938,-0.249939 0,-0.249939 0.249938,-0.249939 z"
         style="font-style:normal;font-variant:normal;font-weight:normal;font-stretch:normal;font-family:'Nixie One';-inkscape-font-specification:'Nixie One';stroke-width:0.41656446"
         id="path58" />
    </g>
    <g
       aria-label="research"
       style="font-style:normal;font-weight:normal;font-size:16.66257858px;line-height:1.25;font-family:sans-serif;letter-spacing:0px;word-spacing:0px;fill:#000000;fill-opacity:1;stroke:none;stroke-width:0.41656446"
       id="text40-6">
      <path
         d="m 112.29079,6.3426071 q -2.09949,0 -3.49915,1.6495953 -0.3999,0.4665522 -0.6665,0.9331044 v 4.6655222 q 0,0.249938 0.24994,0.249938 h 1.33301 q 0.24994,0 0.24994,0.249939 0,0.249939 -0.24994,0.249939 h -3.49914 q -0.24994,0 -0.24994,-0.249939 0,-0.249939 0.24994,-0.249939 h 1.16638 q 0.24993,0 0.24993,-0.249938 V 6.7591716 q 0,-0.2499387 -0.24993,-0.2499387 h -1.16638 q -0.24994,0 -0.24994,-0.2499387 0,-0.2499387 0.24994,-0.2499387 h 1.66625 q 0.24994,0 0.24994,0.2499387 v 1.3163437 q 0,0.4165645 0.34992,0.016663 0.61651,-0.6998283 1.5996,-1.2163682 0.99976,-0.5332025 2.21613,-0.5332025 h 0.81646 q 0.24994,0 0.24994,0.2499386 v 2.0828224 q 0,0.2499386 -0.24994,0.2499386 -0.24994,0 -0.24994,-0.2499386 v -1.582945 q 0,-0.2499387 -0.24993,-0.2499387 z"
         style="font-style:normal;font-variant:normal;font-weight:normal;font-stretch:normal;font-family:'Nixie One';-inkscape-font-specification:'Nixie One';stroke-width:0.41656446"
         id="path61" />
      <path
         d="m 121.2188,13.174264 q 0.26661,-0.199951 0.39991,-0.333251 0.14996,-0.133301 0.23327,-0.08331 0.0833,0.03332 0.19995,0.183288 0.1333,0.133301 -0.0666,0.299927 -0.59985,0.51654 -1.38299,0.899779 -0.78314,0.366577 -1.99951,0.366577 -1.76623,0 -2.8493,-1.216369 -1.06641,-1.216368 -1.06641,-3.115902 0,-1.8995338 1.06641,-3.115902 1.08307,-1.2163682 2.81597,-1.2163682 1.74958,0 2.84931,1.0997301 1.09973,1.0997302 1.09973,2.64935 v 0.2499387 q 0,0.4998774 -0.49988,0.4998774 h -6.56506 q -0.28326,0 -0.24994,0.249939 0.1,1.449644 0.9831,2.432736 0.89977,0.983092 2.44939,0.983092 1.56629,0 2.5827,-0.833129 z m -5.99852,-3.5324663 q 0,0.1999509 0.23327,0.1999509 h 6.31512 q 0.24994,0 0.24994,-0.2499387 0,-1.3330062 -0.98309,-2.2827732 -0.96643,-0.9664296 -2.46607,-0.9664296 -1.48297,0 -2.41607,1.0497425 -0.9331,1.0497424 -0.9331,2.2494481 z"
         style="font-style:normal;font-variant:normal;font-weight:normal;font-stretch:normal;font-family:'Nixie One';-inkscape-font-specification:'Nixie One';stroke-width:0.41656446"
         id="path63" />
      <path
         d="m 128.09056,14.007393 q 1.44964,0 2.21612,-0.499877 0.78314,-0.51654 0.78314,-1.333006 0,-1.099731 -1.58295,-1.466307 -0.73315,-0.166626 -1.76623,-0.316589 -1.01642,-0.149963 -1.48297,-0.283264 -0.99975,-0.2666014 -1.49963,-0.7331536 -0.49988,-0.4832148 -0.49988,-1.3496688 0,-0.8831167 0.88312,-1.5329573 0.89978,-0.6498405 2.49939,-0.6498405 1.5996,0 2.8493,1.2496934 0.14996,0.1666257 0.19995,0.06665 0.0667,-0.099976 0.0667,-0.2332761 V 6.2592942 q 0,-0.2499387 0.24994,-0.2499387 0.24994,0 0.24994,0.2499387 v 2.6660126 q 0,0.2499387 -0.24994,0.2499387 -0.24994,0 -0.24994,-0.2499387 V 8.0921779 q -0.71649,-0.949767 -1.83289,-1.4829695 -0.58319,-0.2666013 -1.31634,-0.2666013 -1.36633,0 -2.11615,0.4998774 -0.73315,0.4832148 -0.73315,1.2330308 0,0.749816 0.63318,1.1663805 0.64984,0.3999019 1.96618,0.5998528 0.56653,0.099975 1.14972,0.1832884 0.58319,0.08331 1.04974,0.183288 0.96643,0.216614 1.49963,0.666503 0.53321,0.44989 0.53321,1.382995 0,0.916441 -0.88312,1.582944 -0.86645,0.666504 -2.61602,0.666504 -1.36634,0 -2.53272,-0.799804 -0.33325,-0.233276 -0.51654,-0.416565 -0.18328,-0.199951 -0.23327,-0.09998 -0.05,0.09998 -0.05,0.233276 v 0.666503 q 0,0.249939 -0.24994,0.249939 -0.24994,0 -0.24994,-0.249939 v -2.666012 q 0,-0.249939 0.24994,-0.249939 0.24994,0 0.24994,0.249939 v 0.833129 q 0.68317,0.966429 1.86621,1.482969 0.61651,0.266601 1.46631,0.266601 z"
         style="font-style:normal;font-variant:normal;font-weight:normal;font-stretch:normal;font-family:'Nixie One';-inkscape-font-specification:'Nixie One';stroke-width:0.41656446"
         id="path65" />
      <path
         d="m 139.89912,13.174264 q 0.2666,-0.199951 0.3999,-0.333251 0.14996,-0.133301 0.23328,-0.08331 0.0833,0.03332 0.19995,0.183288 0.1333,0.133301 -0.0666,0.299927 -0.59986,0.51654 -1.383,0.899779 -0.78314,0.366577 -1.99951,0.366577 -1.76623,0 -2.8493,-1.216369 -1.0664,-1.216368 -1.0664,-3.115902 0,-1.8995338 1.0664,-3.115902 1.08307,-1.2163682 2.81598,-1.2163682 1.74957,0 2.8493,1.0997301 1.09973,1.0997302 1.09973,2.64935 v 0.2499387 q 0,0.4998774 -0.49988,0.4998774 h -6.56505 q -0.28327,0 -0.24994,0.249939 0.1,1.449644 0.98309,2.432736 0.89978,0.983092 2.4494,0.983092 1.56628,0 2.5827,-0.833129 z m -5.99853,-3.5324663 q 0,0.1999509 0.23328,0.1999509 h 6.31511 q 0.24994,0 0.24994,-0.2499387 0,-1.3330062 -0.98309,-2.2827732 -0.96643,-0.9664296 -2.46606,-0.9664296 -1.48297,0 -2.41608,1.0497425 -0.9331,1.0497424 -0.9331,2.2494481 z"
         style="font-style:normal;font-variant:normal;font-weight:normal;font-stretch:normal;font-family:'Nixie One';-inkscape-font-specification:'Nixie One';stroke-width:0.41656446"
         id="path67" />
      <path
         d="m 148.95367,10.258313 q 0,-0.249939 -0.24994,-0.249939 h -2.74933 q -1.44964,0 -2.14947,0.566528 -0.68317,0.566528 -0.68317,1.449644 0,0.866454 0.63318,1.432982 0.64984,0.549865 1.94952,0.549865 1.61627,0 2.8493,-1.632932 0.21662,-0.283264 0.39991,-0.616516 z M 146.3543,5.8427298 q 1.39966,0 2.24945,0.7998037 0.84979,0.7831412 0.84979,1.9495217 v 4.9987738 q 0,0.249938 0.24994,0.249938 h 1.16638 q 0.24994,0 0.24994,0.249939 0,0.249939 -0.24994,0.249939 h -1.66626 q -0.24993,0 -0.24993,-0.249939 v -0.933104 q 0,-0.166626 -0.0666,-0.233276 -0.0667,-0.06665 -0.19995,0.06665 -0.44989,0.566528 -1.2497,1.049742 -0.7998,0.466553 -1.66626,0.466553 -1.54962,0 -2.34942,-0.683166 -0.7998,-0.699828 -0.7998,-1.799559 0,-1.09973 0.91644,-1.799558 0.91644,-0.716491 2.41607,-0.716491 h 2.74933 q 0.24994,0 0.24994,-0.2499386 V 8.5920552 q 0,-0.9664295 -0.73316,-1.5996075 -0.73315,-0.6498406 -1.79956,-0.6498406 -1.0664,0 -1.74957,0.2999264 -0.68316,0.2832639 -0.96643,0.4998774 -0.2666,0.2166135 -0.41656,0.016663 -0.1333,-0.199951 0.05,-0.3332516 1.1997,-0.9830921 3.01592,-0.9830921 z"
         style="font-style:normal;font-variant:normal;font-weight:normal;font-stretch:normal;font-family:'Nixie One';-inkscape-font-specification:'Nixie One';stroke-width:0.41656446"
         id="path69" />
      <path
         d="m 158.40578,6.3426071 q -2.09949,0 -3.49914,1.6495953 -0.39991,0.4665522 -0.66651,0.9331044 v 4.6655222 q 0,0.249938 0.24994,0.249938 h 1.33301 q 0.24994,0 0.24994,0.249939 0,0.249939 -0.24994,0.249939 h -3.49914 q -0.24994,0 -0.24994,-0.249939 0,-0.249939 0.24994,-0.249939 h 1.16638 q 0.24993,0 0.24993,-0.249938 V 6.7591716 q 0,-0.2499387 -0.24993,-0.2499387 h -1.16638 q -0.24994,0 -0.24994,-0.2499387 0,-0.2499387 0.24994,-0.2499387 h 1.66625 q 0.24994,0 0.24994,0.2499387 v 1.3163437 q 0,0.4165645 0.34992,0.016663 0.61651,-0.6998283 1.5996,-1.2163682 0.99976,-0.5332025 2.21613,-0.5332025 h 0.81646 q 0.24994,0 0.24994,0.2499386 v 2.0828224 q 0,0.2499386 -0.24994,0.2499386 -0.24994,0 -0.24994,-0.2499386 v -1.582945 q 0,-0.2499387 -0.24993,-0.2499387 z"
         style="font-style:normal;font-variant:normal;font-weight:normal;font-stretch:normal;font-family:'Nixie One';-inkscape-font-specification:'Nixie One';stroke-width:0.41656446"
         id="path71" />
      <path
         d="m 167.61706,8.0921779 q -1.34967,-1.7495708 -3.16589,-1.7495708 -1.34967,0 -2.26611,1.066405 -0.89978,1.0830677 -0.89978,2.7993129 0,1.716246 0.94976,2.765988 0.94977,1.03308 2.49939,1.03308 1.53296,0 2.56604,-0.833129 0.2666,-0.199951 0.41656,-0.333251 0.14997,-0.133301 0.23328,-0.08331 0.0833,0.03332 0.16662,0.1333 0.0833,0.09998 0.0833,0.183289 0,0.06665 -0.14997,0.216613 -0.54986,0.483215 -1.34967,0.849792 -0.78314,0.366577 -1.9995,0.366577 -1.76624,0 -2.84931,-1.199706 -1.0664,-1.216368 -1.0664,-3.132565 0,-1.9161963 1.04974,-3.115902 1.04974,-1.2163682 2.64935,-1.2163682 1.61627,0 2.86597,1.2496934 0.2666,0.2332761 0.2666,-0.1666258 V 6.2592942 q 0,-0.2499387 0.24994,-0.2499387 0.24993,0 0.24993,0.2499387 v 2.6660126 q 0,0.2499387 -0.24993,0.2499387 -0.24994,0 -0.24994,-0.2499387 z"
         style="font-style:normal;font-variant:normal;font-weight:normal;font-stretch:normal;font-family:'Nixie One';-inkscape-font-specification:'Nixie One';stroke-width:0.41656446"
         id="path73" />
      <path
         d="m 169.64703,13.840767 h 1.16638 q 0.24994,0 0.24994,-0.249938 V 3.4266559 q 0,-0.2499387 -0.24994,-0.2499387 h -1.16638 q -0.24994,0 -0.24994,-0.2499387 0,-0.2499387 0.24994,-0.2499387 h 1.66626 q 0.24994,0 0.24994,0.2499387 v 4.2656201 q 0,0.1666258 0.0667,0.2332761 0.0666,0.06665 0.19995,-0.06665 1.34967,-1.5162946 2.93261,-1.5162946 1.58295,0 2.43274,0.866454 0.86645,0.8497916 0.86645,2.4660617 v 4.4155835 q 0,0.249938 0.24994,0.249938 h 1.16638 q 0.24994,0 0.24994,0.249939 0,0.249939 -0.24994,0.249939 h -3.16589 q -0.24994,0 -0.24994,-0.249939 0,-0.249939 0.24994,-0.249939 h 0.99976 q 0.24993,0 0.24993,-0.249938 V 9.1752455 q 0,-1.4163192 -0.73315,-2.1161475 -0.73315,-0.7164909 -1.99951,-0.7164909 -1.26635,0 -2.39941,1.1330554 -0.48321,0.4998773 -0.86645,1.1163927 v 4.9987738 q 0,0.249938 0.24993,0.249938 h 0.99976 q 0.24994,0 0.24994,0.249939 0,0.249939 -0.24994,0.249939 h -3.16589 q -0.24994,0 -0.24994,-0.249939 0,-0.249939 0.24994,-0.249939 z"
         style="font-style:normal;font-variant:normal;font-weight:normal;font-stretch:normal;font-family:'Nixie One';-inkscape-font-specification:'Nixie One';stroke-width:0.41656446"
         id="path75" />
    </g>
  </g>
</svg>
