<?xml version="1.0" encoding="UTF-8" standalone="no"?>
<svg
   xmlns:dc="http://purl.org/dc/elements/1.1/"
   xmlns:cc="http://creativecommons.org/ns#"
   xmlns:rdf="http://www.w3.org/1999/02/22-rdf-syntax-ns#"
   xmlns:svg="http://www.w3.org/2000/svg"
   xmlns="http://www.w3.org/2000/svg"
   xmlns:sodipodi="http://sodipodi.sourceforge.net/DTD/sodipodi-0.dtd"
   xmlns:inkscape="http://www.inkscape.org/namespaces/inkscape"
   width="179.72789mm"
   height="20.35mm"
   viewBox="0 0 179.72789 20.350001"
   version="1.1"
   id="svg3733"
   sodipodi:docname="isomorph-letterhead.svg"
   inkscape:version="0.92.4 (5da689c313, 2019-01-14)">
  <metadata
     id="metadata3739">
    <rdf:RDF>
      <cc:Work
         rdf:about="">
        <dc:format>image/svg+xml</dc:format>
        <dc:type
           rdf:resource="http://purl.org/dc/dcmitype/StillImage" />
        <dc:title></dc:title>
      </cc:Work>
    </rdf:RDF>
  </metadata>
  <defs
     id="defs3737" />
  <sodipodi:namedview
     pagecolor="#ffffff"
     bordercolor="#666666"
     borderopacity="1"
     objecttolerance="10"
     gridtolerance="10"
     guidetolerance="10"
     inkscape:pageopacity="0"
     inkscape:pageshadow="2"
     inkscape:window-width="3200"
     inkscape:window-height="1675"
     id="namedview3735"
     showgrid="false"
     inkscape:zoom="2.259204"
     inkscape:cx="173.65237"
     inkscape:cy="-106.82946"
     inkscape:window-x="-13"
     inkscape:window-y="-13"
     inkscape:window-maximized="1"
     inkscape:current-layer="svg3733" />
  <g
     id="Sketch"
     transform="matrix(1,0,0,-1,52.638362,31.292)">
    <title
       id="title3730">b'Sketch'</title>
  </g>
  <flowRoot
     style="font-style:normal;font-weight:normal;font-size:40px;line-height:1.25;font-family:sans-serif;letter-spacing:0px;word-spacing:0px;fill:#000000;fill-opacity:1;stroke:none"
     id="flowRoot3784"
     xml:space="preserve"
     transform="matrix(-0.99999999,0,0,0.99999999,52.638362,31.292)"><flowRegion
       id="flowRegion3786"><rect
         y="-73.823601"
         x="-82.785683"
         height="64.319313"
         width="277.62155"
         id="rect3788" /></flowRegion><flowPara
       id="flowPara3790" /></flowRoot>  <g
     id="g3839">
    <g
       transform="matrix(-0.99999999,0,0,0.99999999,91.980607,10.175)"
       id="g3782">
      <path
         d="M 8,0 A 8,8 0 0 1 0,8 8,8 0 0 1 -8,0 8,8 0 0 1 0,-8 8,8 0 0 1 8,0 Z M -8,10 H 8 L 11.639702,0 8,-10 H -8 L -11.639702,0 -8,10 m -10e-8,-10 A 8.0000001,8.0000001 0 0 1 0,-8.0000001 8.0000001,8.0000001 0 0 1 8.0000001,0 8.0000001,8.0000001 0 0 1 0,8.0000001 8.0000001,8.0000001 0 0 1 -8.0000001,0 Z M 8.0000001,-10 H -8.0000001 L -11.639702,0 -8.0000001,10 H 8.0000001 L 11.639702,0 8.0000001,-10"
         style="fill:none;stroke:#000000;stroke-width:0.34999999;stroke-miterlimit:4;stroke-dasharray:none"
         id="circle3728-1"
         inkscape:connector-curvature="0" />
    </g>
    <text
       xml:space="preserve"
       style="font-style:normal;font-weight:normal;font-size:16.66257858px;line-height:1.25;font-family:sans-serif;letter-spacing:0px;word-spacing:0px;fill:#000000;fill-opacity:1;stroke:none;stroke-width:0.41656446"
       x="-0.6165154"
       y="14.340645"
       id="text40"><tspan
         sodipodi:role="line"
         id="tspan38"
         x="-0.6165154"
         y="14.340645"
         style="font-style:normal;font-variant:normal;font-weight:normal;font-stretch:normal;font-family:'Nixie One';-inkscape-font-specification:'Nixie One';stroke-width:0.41656446">isomorph</tspan></text>
    <text
       xml:space="preserve"
       style="font-style:normal;font-weight:normal;font-size:16.66257858px;line-height:1.25;font-family:sans-serif;letter-spacing:0px;word-spacing:0px;fill:#000000;fill-opacity:1;stroke:none;stroke-width:0.41656446"
       x="105.35915"
       y="14.340645"
       id="text40-6"><tspan
         sodipodi:role="line"
         id="tspan38-0"
         x="105.35915"
         y="14.340645"
         style="font-style:normal;font-variant:normal;font-weight:normal;font-stretch:normal;font-family:'Nixie One';-inkscape-font-specification:'Nixie One';stroke-width:0.41656446">research</tspan></text>
  </g>
</svg>
